<?xml version="1.0" encoding="UTF-8"?>
<svg height="600" width="800" xmlns="http://www.w3.org/2000/svg" xmlns:xlink="http://www.w3.org/1999/xlink">
    <g id="Notes" font-family="'LucidaGrande', 'Lucida Grande', sans-serif" font-size="13">
        <rect fill="white" height="600.0" width="800.0" x="0.0" y="0.0" />
        <g font-size="13">
            <text x="18.0" y="176.0">Small</text>
            <text x="18.0" y="376.0">Medium</text>
            <text x="18.0" y="576.0">Large</text>
        </g>
        <g font-size="9">
            <text x="250.0" y="30.0">Ultralight</text>
            <text x="450.0" y="30.0">Regular</text>
            <text x="650.0" y="30.0">Black</text>
            <text id="template-version" fill="#505050" text-anchor="end" x="785.0" y="575.0">Template v.3.0</text>
            <a href="https://wangchujiang.com/#/app">
                <text fill="#505050" text-anchor="end" x="785.0" y="590.0">https://wangchujiang.com/#/app</text>
            </a>
        </g>
    </g>
    <g id="Guides" stroke="rgb(39, 170, 225)" stroke-width="0.5">
        <path id="Capline-S" d="M18,76 l800,0" />
        <path id="H-reference" d="M85,145.755 L87.685,145.755 L113.369,79.287 L114.052,79.287 L114.052,76 L112.148,76 L85,145.755 Z M95.693,121.536 L130.996,121.536 L130.263,119.313 L96.474,119.313 L95.693,121.536 Z M139.15,145.755 L141.787,145.755 L114.638,76 L113.466,76 L113.466,79.287 L139.15,145.755 Z" stroke="none" />
        <path id="Baseline-S" d="M18,146 l800,0" />
        <path id="left-margin-Ultralight-S" d="M215,56 l0,110" />
        <path id="right-margin-Ultralight-S" d="M315,56 l0,110" />
        <path id="left-margin-Regular-S" d="M415,56 l0,110" />
        <path id="right-margin-Regular-S" d="M515,56 l0,110" />
        <path id="left-margin-Black-S" d="M615,56 l0,110" />
        <path id="right-margin-Black-S" d="M715,56 l0,110" />
        <path id="Capline-M" d="M18,276 l800,0" />
        <path id="Baseline-M" d="M18,346 l800,0" />
        <path id="Capline-L" d="M18,476 l800,0" />
        <path id="Baseline-L" d="M18,546 l800,0" />
    </g>
    <g id="Symbols">
        <g id="Ultralight-S">
            <path d="M265,71 C287.091,71 305,88.909 305,111 C305,111.362 304.995,111.723 304.986,112.083 C304.746,114.018 303.868,115.831 302.474,117.224 C300.824,118.875 298.584,119.802 296.25,119.802 C293.916,119.802 291.676,118.875 290.026,117.224 C288.564,115.762 287.669,113.839 287.484,111.797 C287.493,111.532 287.5,111.267 287.5,111 C287.5,98.574 277.426,88.5 265,88.5 C252.574,88.5 242.5,98.574 242.5,111 C242.5,123.426 252.574,133.5 265,133.5 C275.079,133.5 283.609,126.873 286.473,117.738 C286.879,118.328 287.34,118.883 287.853,119.397 C290.081,121.624 293.101,122.875 296.25,122.875 C299.096,122.875 301.835,121.853 303.98,120.014 C299.892,137.764 283.992,151 265,151 C242.909,151 225,133.091 225,111 C225,88.909 242.909,71 265,71 Z" />
        </g>
        <g id="Regular-S">
            <path d="M465,71 C487.091,71 505,88.909 505,111 C505,111.362 504.995,111.723 504.986,112.083 C504.746,114.018 503.868,115.831 502.474,117.224 C500.824,118.875 498.584,119.802 496.25,119.802 C493.916,119.802 491.676,118.875 490.026,117.224 C488.564,115.762 487.669,113.839 487.484,111.797 C487.493,111.532 487.5,111.267 487.5,111 C487.5,98.574 477.426,88.5 465,88.5 C452.574,88.5 442.5,98.574 442.5,111 C442.5,123.426 452.574,133.5 465,133.5 C475.079,133.5 483.609,126.873 486.473,117.738 C486.879,118.328 487.34,118.883 487.853,119.397 C490.081,121.624 493.101,122.875 496.25,122.875 C499.096,122.875 501.835,121.853 503.98,120.014 C499.892,137.764 483.992,151 465,151 C442.909,151 425,133.091 425,111 C425,88.909 442.909,71 465,71 Z" />
        </g>
        <g id="Black-S">
            <path d="M665,71 C687.091,71 705,88.909 705,111 C705,111.362 704.995,111.723 704.986,112.083 C704.746,114.018 703.868,115.831 702.474,117.224 C700.824,118.875 698.584,119.802 696.25,119.802 C693.916,119.802 691.676,118.875 690.026,117.224 C688.564,115.762 687.669,113.839 687.484,111.797 C687.493,111.532 687.5,111.267 687.5,111 C687.5,98.574 677.426,88.5 665,88.5 C652.574,88.5 642.5,98.574 642.5,111 C642.5,123.426 652.574,133.5 665,133.5 C675.079,133.5 683.609,126.873 686.473,117.738 C686.879,118.328 687.34,118.883 687.853,119.397 C690.081,121.624 693.101,122.875 696.25,122.875 C699.096,122.875 701.835,121.853 703.98,120.014 C699.892,137.764 683.992,151 665,151 C642.909,151 625,133.091 625,111 C625,88.909 642.909,71 665,71 Z" />
        </g>
    </g>
</svg>