<?xml version="1.0" encoding="UTF-8"?>
<svg height="600" width="800" xmlns="http://www.w3.org/2000/svg" xmlns:xlink="http://www.w3.org/1999/xlink">
    <g id="Notes" font-family="'LucidaGrande', 'Lucida Grande', sans-serif" font-size="13">
        <rect fill="white" height="600.0" width="800.0" x="0.0" y="0.0" />
        <g font-size="13">
            <text x="18.0" y="176.0">Small</text>
            <text x="18.0" y="376.0">Medium</text>
            <text x="18.0" y="576.0">Large</text>
        </g>
        <g font-size="9">
            <text x="250.0" y="30.0">Ultralight</text>
            <text x="450.0" y="30.0">Regular</text>
            <text x="650.0" y="30.0">Black</text>
            <text id="template-version" fill="#505050" text-anchor="end" x="785.0" y="575.0">Template v.3.0</text>
            <a href="https://wangchujiang.com/#/app">
                <text fill="#505050" text-anchor="end" x="785.0" y="590.0">https://wangchujiang.com/#/app</text>
            </a>
        </g>
    </g>
    <g id="Guides" stroke="rgb(39, 170, 225)" stroke-width="0.5">
        <path id="Capline-S" d="M18,76 l800,0" />
        <path id="H-reference" d="M85,145.755 L87.685,145.755 L113.369,79.287 L114.052,79.287 L114.052,76 L112.148,76 L85,145.755 Z M95.693,121.536 L130.996,121.536 L130.263,119.313 L96.474,119.313 L95.693,121.536 Z M139.15,145.755 L141.787,145.755 L114.638,76 L113.466,76 L113.466,79.287 L139.15,145.755 Z" stroke="none" />
        <path id="Baseline-S" d="M18,146 l800,0" />
        <path id="left-margin-Ultralight-S" d="M215.625,56 l0,110" />
        <path id="right-margin-Ultralight-S" d="M314.375,56 l0,110" />
        <path id="left-margin-Regular-S" d="M415.625,56 l0,110" />
        <path id="right-margin-Regular-S" d="M514.375,56 l0,110" />
        <path id="left-margin-Black-S" d="M615.625,56 l0,110" />
        <path id="right-margin-Black-S" d="M714.375,56 l0,110" />
        <path id="Capline-M" d="M18,276 l800,0" />
        <path id="Baseline-M" d="M18,346 l800,0" />
        <path id="Capline-L" d="M18,476 l800,0" />
        <path id="Baseline-L" d="M18,546 l800,0" />
    </g>
    <g id="Symbols">
        <g id="Ultralight-S">
            <path d="M286.625,97.144 C294.501,101.691 298.439,103.964 299.76,106.933 C300.913,109.522 300.913,112.478 299.76,115.067 C298.439,118.036 294.501,120.309 286.625,124.856 L259.625,140.445 C251.749,144.992 247.811,147.266 244.58,146.926 C241.761,146.63 239.201,145.152 237.535,142.859 C235.625,140.23 235.625,135.683 235.625,126.589 L235.625,95.411 C235.625,86.317 235.625,81.77 237.535,79.141 C239.201,76.849 241.761,75.37 244.58,75.074 C247.811,74.734 251.749,77.008 259.625,81.555 L286.625,97.144 Z" />
        </g>
        <g id="Regular-S">
            <path d="M486.625,97.144 C494.501,101.691 498.439,103.964 499.76,106.933 C500.913,109.522 500.913,112.478 499.76,115.067 C498.439,118.036 494.501,120.309 486.625,124.856 L459.625,140.445 C451.749,144.992 447.811,147.266 444.58,146.926 C441.761,146.63 439.201,145.152 437.535,142.859 C435.625,140.23 435.625,135.683 435.625,126.589 L435.625,95.411 C435.625,86.317 435.625,81.77 437.535,79.141 C439.201,76.849 441.761,75.37 444.58,75.074 C447.811,74.734 451.749,77.008 459.625,81.555 L486.625,97.144 Z" />
        </g>
        <g id="Black-S">
            <path d="M686.625,97.144 C694.501,101.691 698.439,103.964 699.76,106.933 C700.913,109.522 700.913,112.478 699.76,115.067 C698.439,118.036 694.501,120.309 686.625,124.856 L659.625,140.445 C651.749,144.992 647.811,147.266 644.58,146.926 C641.761,146.63 639.201,145.152 637.535,142.859 C635.625,140.23 635.625,135.683 635.625,126.589 L635.625,95.411 C635.625,86.317 635.625,81.77 637.535,79.141 C639.201,76.849 641.761,75.37 644.58,75.074 C647.811,74.734 651.749,77.008 659.625,81.555 L686.625,97.144 Z" />
        </g>
    </g>
</svg>