<?xml version="1.0" encoding="UTF-8"?>
<svg height="600" width="800" xmlns="http://www.w3.org/2000/svg" xmlns:xlink="http://www.w3.org/1999/xlink">
    <g id="Notes" font-family="'LucidaGrande', 'Lucida Grande', sans-serif" font-size="13">
        <rect fill="white" height="600.0" width="800.0" x="0.0" y="0.0" />
        <g font-size="13">
            <text x="18.0" y="176.0">Small</text>
            <text x="18.0" y="376.0">Medium</text>
            <text x="18.0" y="576.0">Large</text>
        </g>
        <g font-size="9">
            <text x="250.0" y="30.0">Ultralight</text>
            <text x="450.0" y="30.0">Regular</text>
            <text x="650.0" y="30.0">Black</text>
            <text id="template-version" fill="#505050" text-anchor="end" x="785.0" y="575.0">Template v.3.0</text>
            <a href="https://wangchujiang.com/#/app">
                <text fill="#505050" text-anchor="end" x="785.0" y="590.0">https://wangchujiang.com/#/app</text>
            </a>
        </g>
    </g>
    <g id="Guides" stroke="rgb(39, 170, 225)" stroke-width="0.5">
        <path id="Capline-S" d="M18,76 l800,0" />
        <path id="H-reference" d="M85,145.755 L87.685,145.755 L113.369,79.287 L114.052,79.287 L114.052,76 L112.148,76 L85,145.755 Z M95.693,121.536 L130.996,121.536 L130.263,119.313 L96.474,119.313 L95.693,121.536 Z M139.15,145.755 L141.787,145.755 L114.638,76 L113.466,76 L113.466,79.287 L139.15,145.755 Z" stroke="none" />
        <path id="Baseline-S" d="M18,146 l800,0" />
        <path id="left-margin-Ultralight-S" d="M216.718,56 l0,110" />
        <path id="right-margin-Ultralight-S" d="M313.282,56 l0,110" />
        <path id="left-margin-Regular-S" d="M416.718,56 l0,110" />
        <path id="right-margin-Regular-S" d="M513.282,56 l0,110" />
        <path id="left-margin-Black-S" d="M616.718,56 l0,110" />
        <path id="right-margin-Black-S" d="M713.282,56 l0,110" />
        <path id="Capline-M" d="M18,276 l800,0" />
        <path id="Baseline-M" d="M18,346 l800,0" />
        <path id="Capline-L" d="M18,476 l800,0" />
        <path id="Baseline-L" d="M18,546 l800,0" />
    </g>
    <g id="Symbols">
        <g id="Ultralight-S">
            <path d="M264.976,72.647 C286.121,72.647 303.282,89.809 303.282,110.905 C303.282,132.003 286.121,149.165 264.976,149.165 C243.879,149.165 226.718,132.002 226.718,110.905 C226.718,89.809 243.879,72.647 264.976,72.647 Z M264.843,84.378 C262.77,84.378 261.089,86.059 261.089,88.132 L261.089,107.131 C261.089,109.204 262.77,110.885 264.843,110.885 C266.916,110.885 268.597,109.204 268.597,107.131 L268.597,88.132 C268.597,86.059 266.916,84.378 264.843,84.378 Z" />
        </g>
        <g id="Regular-S">
            <path d="M464.976,72.647 C486.121,72.647 503.282,89.809 503.282,110.905 C503.282,132.003 486.121,149.165 464.976,149.165 C443.879,149.165 426.718,132.002 426.718,110.905 C426.718,89.809 443.879,72.647 464.976,72.647 Z M464.843,84.378 C462.77,84.378 461.089,86.059 461.089,88.132 L461.089,107.131 C461.089,109.204 462.77,110.885 464.843,110.885 C466.916,110.885 468.597,109.204 468.597,107.131 L468.597,88.132 C468.597,86.059 466.916,84.378 464.843,84.378 Z" />
        </g>
        <g id="Black-S">
            <path d="M664.976,72.647 C686.121,72.647 703.282,89.809 703.282,110.905 C703.282,132.003 686.121,149.165 664.976,149.165 C643.879,149.165 626.718,132.002 626.718,110.905 C626.718,89.809 643.879,72.647 664.976,72.647 Z M664.843,84.378 C662.77,84.378 661.089,86.059 661.089,88.132 L661.089,107.131 C661.089,109.204 662.77,110.885 664.843,110.885 C666.916,110.885 668.597,109.204 668.597,107.131 L668.597,88.132 C668.597,86.059 666.916,84.378 664.843,84.378 Z" />
        </g>
    </g>
</svg>