<?xml version="1.0" encoding="UTF-8"?>
<!--Generator: Apple Native CoreSVG 232.5-->
<!DOCTYPE svg
PUBLIC "-//W3C//DTD SVG 1.1//EN"
       "http://www.w3.org/Graphics/SVG/1.1/DTD/svg11.dtd">
<svg version="1.1" xmlns="http://www.w3.org/2000/svg" xmlns:xlink="http://www.w3.org/1999/xlink" width="3300" height="2200">
 <!--glyph: "", point size: 100.0, font version: "20.0d10e1", template writer version: "138.0.0"-->
 <style>.monochrome-0 {-sfsymbols-motion-group:1;-sfsymbols-layer-tags:1c2a34c7aea15889}
.monochrome-1 {-sfsymbols-motion-group:0;-sfsymbols-layer-tags:1c2a34c7aea15889}

.multicolor-0:tintColor {-sfsymbols-motion-group:1;-sfsymbols-layer-tags:1c2a34c7aea15889}
.multicolor-1:labelColor {-sfsymbols-motion-group:0;-sfsymbols-layer-tags:1c2a34c7aea15889}

.hierarchical-0:primary {-sfsymbols-motion-group:1;-sfsymbols-layer-tags:1c2a34c7aea15889}
.hierarchical-1:primary {-sfsymbols-motion-group:0;-sfsymbols-layer-tags:1c2a34c7aea15889}

.SFSymbolsPreviewWireframe {fill:none;opacity:1.0;stroke:black;stroke-width:0.5}
</style>
 <g id="Notes">
  <rect height="2200" id="artboard" style="fill:white;opacity:1" width="3300" x="0" y="0"/>
  <line style="fill:none;stroke:black;opacity:1;stroke-width:0.5;" x1="263" x2="3036" y1="292" y2="292"/>
  <text style="stroke:none;fill:black;font-family:sans-serif;font-size:13;font-weight:bold;" transform="matrix(1 0 0 1 263 322)">Weight/Scale Variations</text>
  <text style="stroke:none;fill:black;font-family:sans-serif;font-size:13;text-anchor:middle;" transform="matrix(1 0 0 1 559.711 322)">Ultralight</text>
  <text style="stroke:none;fill:black;font-family:sans-serif;font-size:13;text-anchor:middle;" transform="matrix(1 0 0 1 856.422 322)">Thin</text>
  <text style="stroke:none;fill:black;font-family:sans-serif;font-size:13;text-anchor:middle;" transform="matrix(1 0 0 1 1153.13 322)">Light</text>
  <text style="stroke:none;fill:black;font-family:sans-serif;font-size:13;text-anchor:middle;" transform="matrix(1 0 0 1 1449.84 322)">Regular</text>
  <text style="stroke:none;fill:black;font-family:sans-serif;font-size:13;text-anchor:middle;" transform="matrix(1 0 0 1 1746.56 322)">Medium</text>
  <text style="stroke:none;fill:black;font-family:sans-serif;font-size:13;text-anchor:middle;" transform="matrix(1 0 0 1 2043.27 322)">Semibold</text>
  <text style="stroke:none;fill:black;font-family:sans-serif;font-size:13;text-anchor:middle;" transform="matrix(1 0 0 1 2339.98 322)">Bold</text>
  <text style="stroke:none;fill:black;font-family:sans-serif;font-size:13;text-anchor:middle;" transform="matrix(1 0 0 1 2636.69 322)">Heavy</text>
  <text style="stroke:none;fill:black;font-family:sans-serif;font-size:13;text-anchor:middle;" transform="matrix(1 0 0 1 2933.4 322)">Black</text>
  <line style="fill:none;stroke:black;opacity:1;stroke-width:0.5;" x1="263" x2="3036" y1="1903" y2="1903"/>
  <g transform="matrix(0.2 0 0 0.2 263 1933)">
   <path d="m46.2402 4.15039c21.7773 0 39.4531-17.627 39.4531-39.4043s-17.6758-39.4043-39.4531-39.4043c-21.7285 0-39.4043 17.627-39.4043 39.4043s17.6758 39.4043 39.4043 39.4043Zm0-7.42188c-17.6758 0-31.9336-14.3066-31.9336-31.9824s14.2578-31.9824 31.9336-31.9824 31.9824 14.3066 31.9824 31.9824-14.3066 31.9824-31.9824 31.9824Zm-17.9688-31.9824c0 2.14844 1.51367 3.61328 3.75977 3.61328h10.498v10.5957c0 2.19727 1.46484 3.71094 3.61328 3.71094 2.24609 0 3.71094-1.51367 3.71094-3.71094v-10.5957h10.5957c2.19727 0 3.71094-1.46484 3.71094-3.61328 0-2.19727-1.51367-3.71094-3.71094-3.71094h-10.5957v-10.5469c0-2.24609-1.46484-3.75977-3.71094-3.75977-2.14844 0-3.61328 1.51367-3.61328 3.75977v10.5469h-10.498c-2.24609 0-3.75977 1.51367-3.75977 3.71094Z"/>
  </g>
  <g transform="matrix(0.2 0 0 0.2 281.506 1933)">
   <path d="m58.5449 14.5508c27.4902 0 49.8047-22.3145 49.8047-49.8047s-22.3145-49.8047-49.8047-49.8047-49.8047 22.3145-49.8047 49.8047 22.3145 49.8047 49.8047 49.8047Zm0-8.30078c-22.9492 0-41.5039-18.5547-41.5039-41.5039s18.5547-41.5039 41.5039-41.5039 41.5039 18.5547 41.5039 41.5039-18.5547 41.5039-41.5039 41.5039Zm-22.6562-41.5039c0 2.39258 1.66016 4.00391 4.15039 4.00391h14.3555v14.4043c0 2.44141 1.66016 4.15039 4.05273 4.15039 2.44141 0 4.15039-1.66016 4.15039-4.15039v-14.4043h14.4043c2.44141 0 4.15039-1.61133 4.15039-4.00391 0-2.44141-1.70898-4.15039-4.15039-4.15039h-14.4043v-14.3555c0-2.49023-1.70898-4.19922-4.15039-4.19922-2.39258 0-4.05273 1.70898-4.05273 4.19922v14.3555h-14.3555c-2.49023 0-4.15039 1.70898-4.15039 4.15039Z"/>
  </g>
  <g transform="matrix(0.2 0 0 0.2 304.924 1933)">
   <path d="m74.8535 28.3203c35.1074 0 63.623-28.4668 63.623-63.5742s-28.5156-63.623-63.623-63.623-63.5742 28.5156-63.5742 63.623 28.4668 63.5742 63.5742 63.5742Zm0-9.08203c-30.127 0-54.4922-24.3652-54.4922-54.4922s24.3652-54.4922 54.4922-54.4922 54.4922 24.3652 54.4922 54.4922-24.3652 54.4922-54.4922 54.4922Zm-28.8574-54.4922c0 2.58789 1.85547 4.39453 4.58984 4.39453h19.7266v19.7754c0 2.68555 1.85547 4.58984 4.44336 4.58984 2.68555 0 4.54102-1.85547 4.54102-4.58984v-19.7754h19.7754c2.68555 0 4.58984-1.80664 4.58984-4.39453 0-2.73438-1.85547-4.58984-4.58984-4.58984h-19.7754v-19.7266c0-2.73438-1.85547-4.63867-4.54102-4.63867-2.58789 0-4.44336 1.9043-4.44336 4.63867v19.7266h-19.7266c-2.73438 0-4.58984 1.85547-4.58984 4.58984Z"/>
  </g>
  <text style="stroke:none;fill:black;font-family:sans-serif;font-size:13;font-weight:bold;" transform="matrix(1 0 0 1 263 1953)">Design Variations</text>
  <text style="stroke:none;fill:black;font-family:sans-serif;font-size:13;" transform="matrix(1 0 0 1 263 1971)">Symbols are supported in up to nine weights and three scales.</text>
  <text style="stroke:none;fill:black;font-family:sans-serif;font-size:13;" transform="matrix(1 0 0 1 263 1989)">For optimal layout with text and other symbols, vertically align</text>
  <text style="stroke:none;fill:black;font-family:sans-serif;font-size:13;" transform="matrix(1 0 0 1 263 2007)">symbols with the adjacent text.</text>
  <line style="fill:none;stroke:#00AEEF;stroke-width:0.5;opacity:1.0;" x1="776" x2="776" y1="1919" y2="1933"/>
  <g transform="matrix(0.2 0 0 0.2 776 1933)">
   <path d="m16.5527 0.78125c2.58789 0 3.85742-0.976562 4.78516-3.71094l6.29883-17.2363h28.8086l6.29883 17.2363c0.927734 2.73438 2.19727 3.71094 4.73633 3.71094 2.58789 0 4.24805-1.5625 4.24805-4.00391 0-0.830078-0.146484-1.61133-0.537109-2.63672l-22.9004-60.9863c-1.12305-2.97852-3.125-4.49219-6.25-4.49219-3.02734 0-5.07812 1.46484-6.15234 4.44336l-22.9004 61.084c-0.390625 1.02539-0.537109 1.80664-0.537109 2.63672 0 2.44141 1.5625 3.95508 4.10156 3.95508Zm13.4766-28.3691 11.8652-32.8613h0.244141l11.8652 32.8613Z"/>
  </g>
  <line style="fill:none;stroke:#00AEEF;stroke-width:0.5;opacity:1.0;" x1="792.836" x2="792.836" y1="1919" y2="1933"/>
  <text style="stroke:none;fill:black;font-family:sans-serif;font-size:13;font-weight:bold;" transform="matrix(1 0 0 1 776 1953)">Margins</text>
  <text style="stroke:none;fill:black;font-family:sans-serif;font-size:13;" transform="matrix(1 0 0 1 776 1971)">Leading and trailing margins on the left and right side of each symbol</text>
  <text style="stroke:none;fill:black;font-family:sans-serif;font-size:13;" transform="matrix(1 0 0 1 776 1989)">can be adjusted by modifying the x-location of the margin guidelines.</text>
  <text style="stroke:none;fill:black;font-family:sans-serif;font-size:13;" transform="matrix(1 0 0 1 776 2007)">Modifications are automatically applied proportionally to all</text>
  <text style="stroke:none;fill:black;font-family:sans-serif;font-size:13;" transform="matrix(1 0 0 1 776 2025)">scales and weights.</text>
  <g transform="matrix(0.2 0 0 0.2 1289 1933)">
   <path d="m14.209 9.32617 8.49609 8.54492c4.29688 4.3457 9.22852 4.05273 13.8672-1.07422l53.4668-58.9355-4.83398-4.88281-53.0762 58.3984c-1.75781 2.00195-3.41797 2.49023-5.76172 0.146484l-5.85938-5.81055c-2.34375-2.29492-1.80664-4.00391 0.195312-5.81055l57.373-54.0039-4.88281-4.83398-57.959 54.4434c-4.93164 4.58984-5.32227 9.47266-1.02539 13.8184Zm32.0801-90.9668c-2.09961 2.05078-2.24609 4.93164-1.07422 6.88477 1.17188 1.80664 3.4668 2.97852 6.68945 2.14844 7.32422-1.70898 14.9414-2.00195 22.0703 2.68555l-2.92969 7.27539c-1.70898 4.15039-0.830078 7.08008 1.85547 9.81445l11.4746 11.5723c2.44141 2.44141 4.49219 2.53906 7.32422 2.05078l5.32227-0.976562 3.32031 3.36914-0.195312 2.7832c-0.195312 2.49023 0.439453 4.39453 2.88086 6.78711l3.80859 3.71094c2.39258 2.39258 5.46875 2.53906 7.8125 0.195312l14.5508-14.5996c2.34375-2.34375 2.24609-5.32227-0.146484-7.71484l-3.85742-3.80859c-2.39258-2.39258-4.24805-3.17383-6.64062-2.97852l-2.88086 0.244141-3.22266-3.17383 1.2207-5.61523c0.634766-2.83203-0.146484-5.0293-3.07617-7.95898l-10.9863-10.9375c-16.6992-16.6016-38.8672-16.2109-53.3203-1.75781Zm7.4707 1.85547c12.1582-8.88672 28.6133-7.37305 39.7461 3.75977l12.1582 12.0605c1.17188 1.17188 1.36719 2.09961 1.02539 3.80859l-1.61133 7.42188 7.51953 7.42188 4.93164-0.292969c1.26953-0.0488281 1.66016 0.0488281 2.63672 1.02539l2.88086 2.88086-12.207 12.207-2.88086-2.88086c-0.976562-0.976562-1.12305-1.36719-1.07422-2.68555l0.341797-4.88281-7.4707-7.42188-7.61719 1.26953c-1.61133 0.341797-2.34375 0.195312-3.56445-0.976562l-10.0098-10.0098c-1.26953-1.17188-1.41602-2.00195-0.634766-3.85742l4.39453-10.4492c-7.8125-7.27539-17.9688-10.4004-28.125-7.42188-0.78125 0.195312-1.07422-0.439453-0.439453-0.976562Z"/>
  </g>
  <text style="stroke:none;fill:black;font-family:sans-serif;font-size:13;font-weight:bold;" transform="matrix(1 0 0 1 1289 1953)">Exporting</text>
  <text style="stroke:none;fill:black;font-family:sans-serif;font-size:13;" transform="matrix(1 0 0 1 1289 1971)">Symbols should be outlined when exporting to ensure the</text>
  <text style="stroke:none;fill:black;font-family:sans-serif;font-size:13;" transform="matrix(1 0 0 1 1289 1989)">design is preserved when submitting to Xcode.</text>
  <text id="template-version" style="stroke:none;fill:black;font-family:sans-serif;font-size:13;text-anchor:end;" transform="matrix(1 0 0 1 3036 1933)">Template v.5.0</text>
  <text style="stroke:none;fill:black;font-family:sans-serif;font-size:13;text-anchor:end;" transform="matrix(1 0 0 1 3036 1951)">Requires Xcode 15 or greater</text>
  <text id="descriptive-name" style="stroke:none;fill:black;font-family:sans-serif;font-size:13;text-anchor:end;" transform="matrix(1 0 0 1 3036 1969)">Generated from hearth.monitor</text>
  <text style="stroke:none;fill:black;font-family:sans-serif;font-size:13;text-anchor:end;" transform="matrix(1 0 0 1 3036 1987)">Typeset at 100.0 points</text>
  <text style="stroke:none;fill:black;font-family:sans-serif;font-size:13;" transform="matrix(1 0 0 1 263 726)">Small</text>
  <text style="stroke:none;fill:black;font-family:sans-serif;font-size:13;" transform="matrix(1 0 0 1 263 1156)">Medium</text>
  <text style="stroke:none;fill:black;font-family:sans-serif;font-size:13;" transform="matrix(1 0 0 1 263 1586)">Large</text>
 </g>
 <g id="Guides">
  <g id="H-reference" style="fill:#27AAE1;stroke:none;" transform="matrix(1 0 0 1 339 696)">
   <path d="M0.993654 0L3.63775 0L29.3281-67.1323L30.0303-67.1323L30.0303-70.459L28.1226-70.459ZM11.6885-24.4799L46.9815-24.4799L46.2315-26.7285L12.4385-26.7285ZM55.1196 0L57.7637 0L30.6382-70.459L29.4326-70.459L29.4326-67.1323Z"/>
  </g>
  <line id="Baseline-S" style="fill:none;stroke:#27AAE1;opacity:1;stroke-width:0.5;" x1="263" x2="3036" y1="696" y2="696"/>
  <line id="Capline-S" style="fill:none;stroke:#27AAE1;opacity:1;stroke-width:0.5;" x1="263" x2="3036" y1="625.541" y2="625.541"/>
  <g id="H-reference" style="fill:#27AAE1;stroke:none;" transform="matrix(1 0 0 1 339 1126)">
   <path d="M0.993654 0L3.63775 0L29.3281-67.1323L30.0303-67.1323L30.0303-70.459L28.1226-70.459ZM11.6885-24.4799L46.9815-24.4799L46.2315-26.7285L12.4385-26.7285ZM55.1196 0L57.7637 0L30.6382-70.459L29.4326-70.459L29.4326-67.1323Z"/>
  </g>
  <line id="Baseline-M" style="fill:none;stroke:#27AAE1;opacity:1;stroke-width:0.5;" x1="263" x2="3036" y1="1126" y2="1126"/>
  <line id="Capline-M" style="fill:none;stroke:#27AAE1;opacity:1;stroke-width:0.5;" x1="263" x2="3036" y1="1055.54" y2="1055.54"/>
  <g id="H-reference" style="fill:#27AAE1;stroke:none;" transform="matrix(1 0 0 1 339 1556)">
   <path d="M0.993654 0L3.63775 0L29.3281-67.1323L30.0303-67.1323L30.0303-70.459L28.1226-70.459ZM11.6885-24.4799L46.9815-24.4799L46.2315-26.7285L12.4385-26.7285ZM55.1196 0L57.7637 0L30.6382-70.459L29.4326-70.459L29.4326-67.1323Z"/>
  </g>
  <line id="Baseline-L" style="fill:none;stroke:#27AAE1;opacity:1;stroke-width:0.5;" x1="263" x2="3036" y1="1556" y2="1556"/>
  <line id="Capline-L" style="fill:none;stroke:#27AAE1;opacity:1;stroke-width:0.5;" x1="263" x2="3036" y1="1485.54" y2="1485.54"/>
  <line id="right-margin-Regular-M" style="fill:none;stroke:#00AEEF;stroke-width:0.5;opacity:1.0;" x1="1503.53" x2="1503.53" y1="1030.79" y2="1150.12"/>
  <line id="left-margin-Regular-M" style="fill:none;stroke:#00AEEF;stroke-width:0.5;opacity:1.0;" x1="1396.16" x2="1396.16" y1="1030.79" y2="1150.12"/>
 </g>
 <g id="Symbols">
  <g id="Black-L" transform="matrix(1 0 0 1 2864.88 1556)">
   <path class="monochrome-0 multicolor-0:tintColor hierarchical-0:primary SFSymbolsPreviewWireframe" d="M73.9181 27.0216C72.4091 28.0276 70.2301 29.0336 68.7211 29.0336C67.2971 29.0336 65.0341 28.0276 63.5251 27.0216C40.2901 12.3256 22.5821-3.90442 12.4341-20.8604L31.0121-20.8604C33.4241-20.8604 35.6901-22.0144 37.1091-23.9644L39.4691-27.2094L47.3591-16.1634C50.5291-11.7254 57.2171-12.0184 59.9871-16.7154L75.3031-42.6854L85.9131-24.5864C87.2661-22.2784 89.7411-20.8604 92.4161-20.8604L125.008-20.8604C114.86-3.90442 97.1531 12.3256 73.9181 27.0216Z"/>
   <path class="monochrome-1 multicolor-1:labelColor hierarchical-1:primary SFSymbolsPreviewWireframe" d="M130.595-32.1674L94.5761-32.1674L81.8161-53.9344C78.9081-58.8944 71.7401-58.9044 68.8191-53.9514L53.1911-27.4524L45.6311-38.0374C42.6401-42.2244 36.4261-42.2514 33.4001-38.0894L29.0931-32.1674L6.84813-32.1674C4.16613-39.0484 2.76113-46.0154 2.76113-53.0184C2.76113-76.6544 19.0211-93.4164 39.8901-93.4164C53.0481-93.4164 62.6871-86.1244 68.7211-75.3124C74.8401-86.2084 84.3941-93.4164 97.5531-93.4164C118.422-93.4164 134.682-76.6544 134.682-53.0184C134.682-46.0154 133.276-39.0484 130.595-32.1674Z"/>
  </g>
  <g id="Heavy-L" transform="matrix(1 0 0 1 2568.17 1556)">
   <path class="monochrome-0 multicolor-0:tintColor hierarchical-0:primary SFSymbolsPreviewWireframe" d="M73.9181 27.0216C72.4091 28.0276 70.2301 29.0336 68.7211 29.0336C67.2971 29.0336 65.0341 28.0276 63.5251 27.0216C40.2901 12.3256 22.5821-3.90442 12.4341-20.8604L31.0121-20.8604C33.4241-20.8604 35.6901-22.0144 37.1091-23.9644L39.4691-27.2094L47.3591-16.1634C50.5291-11.7254 57.2171-12.0184 59.9871-16.7154L75.3031-42.6854L85.9131-24.5864C87.2661-22.2784 89.7411-20.8604 92.4161-20.8604L125.008-20.8604C114.86-3.90442 97.1531 12.3256 73.9181 27.0216Z"/>
   <path class="monochrome-1 multicolor-1:labelColor hierarchical-1:primary SFSymbolsPreviewWireframe" d="M130.595-32.1674L94.5761-32.1674L81.8161-53.9344C78.9081-58.8944 71.7401-58.9044 68.8191-53.9514L53.1911-27.4524L45.6311-38.0374C42.6401-42.2244 36.4261-42.2514 33.4001-38.0894L29.0931-32.1674L6.84813-32.1674C4.16613-39.0484 2.76113-46.0154 2.76113-53.0184C2.76113-76.6544 19.0211-93.4164 39.8901-93.4164C53.0481-93.4164 62.6871-86.1244 68.7211-75.3124C74.8401-86.2084 84.3941-93.4164 97.5531-93.4164C118.422-93.4164 134.682-76.6544 134.682-53.0184C134.682-46.0154 133.276-39.0484 130.595-32.1674Z"/>
  </g>
  <g id="Bold-L" transform="matrix(1 0 0 1 2271.46 1556)">
   <path class="monochrome-0 multicolor-0:tintColor hierarchical-0:primary SFSymbolsPreviewWireframe" d="M73.9181 27.0216C72.4091 28.0276 70.2301 29.0336 68.7211 29.0336C67.2971 29.0336 65.0341 28.0276 63.5251 27.0216C40.2901 12.3256 22.5821-3.90442 12.4341-20.8604L31.0121-20.8604C33.4241-20.8604 35.6901-22.0144 37.1091-23.9644L39.4691-27.2094L47.3591-16.1634C50.5291-11.7254 57.2171-12.0184 59.9871-16.7154L75.3031-42.6854L85.9131-24.5864C87.2661-22.2784 89.7411-20.8604 92.4161-20.8604L125.008-20.8604C114.86-3.90442 97.1531 12.3256 73.9181 27.0216Z"/>
   <path class="monochrome-1 multicolor-1:labelColor hierarchical-1:primary SFSymbolsPreviewWireframe" d="M130.595-32.1674L94.5761-32.1674L81.8161-53.9344C78.9081-58.8944 71.7401-58.9044 68.8191-53.9514L53.1911-27.4524L45.6311-38.0374C42.6401-42.2244 36.4261-42.2514 33.4001-38.0894L29.0931-32.1674L6.84813-32.1674C4.16613-39.0484 2.76113-46.0154 2.76113-53.0184C2.76113-76.6544 19.0211-93.4164 39.8901-93.4164C53.0481-93.4164 62.6871-86.1244 68.7211-75.3124C74.8401-86.2084 84.3941-93.4164 97.5531-93.4164C118.422-93.4164 134.682-76.6544 134.682-53.0184C134.682-46.0154 133.276-39.0484 130.595-32.1674Z"/>
  </g>
  <g id="Semibold-L" transform="matrix(1 0 0 1 1974.75 1556)">
   <path class="monochrome-0 multicolor-0:tintColor hierarchical-0:primary SFSymbolsPreviewWireframe" d="M73.9181 27.0216C72.4091 28.0276 70.2301 29.0336 68.7211 29.0336C67.2971 29.0336 65.0341 28.0276 63.5251 27.0216C40.2901 12.3256 22.5821-3.90442 12.4341-20.8604L31.0121-20.8604C33.4241-20.8604 35.6901-22.0144 37.1091-23.9644L39.4691-27.2094L47.3591-16.1634C50.5291-11.7254 57.2171-12.0184 59.9871-16.7154L75.3031-42.6854L85.9131-24.5864C87.2661-22.2784 89.7411-20.8604 92.4161-20.8604L125.008-20.8604C114.86-3.90442 97.1531 12.3256 73.9181 27.0216Z"/>
   <path class="monochrome-1 multicolor-1:labelColor hierarchical-1:primary SFSymbolsPreviewWireframe" d="M130.595-32.1674L94.5761-32.1674L81.8161-53.9344C78.9081-58.8944 71.7401-58.9044 68.8191-53.9514L53.1911-27.4524L45.6311-38.0374C42.6401-42.2244 36.4261-42.2514 33.4001-38.0894L29.0931-32.1674L6.84813-32.1674C4.16613-39.0484 2.76113-46.0154 2.76113-53.0184C2.76113-76.6544 19.0211-93.4164 39.8901-93.4164C53.0481-93.4164 62.6871-86.1244 68.7211-75.3124C74.8401-86.2084 84.3941-93.4164 97.5531-93.4164C118.422-93.4164 134.682-76.6544 134.682-53.0184C134.682-46.0154 133.276-39.0484 130.595-32.1674Z"/>
  </g>
  <g id="Medium-L" transform="matrix(1 0 0 1 1678.04 1556)">
   <path class="monochrome-0 multicolor-0:tintColor hierarchical-0:primary SFSymbolsPreviewWireframe" d="M73.9181 27.0216C72.4091 28.0276 70.2301 29.0336 68.7211 29.0336C67.2971 29.0336 65.0341 28.0276 63.5251 27.0216C40.2901 12.3256 22.5821-3.90442 12.4341-20.8604L31.0121-20.8604C33.4241-20.8604 35.6901-22.0144 37.1091-23.9644L39.4691-27.2094L47.3591-16.1634C50.5291-11.7254 57.2171-12.0184 59.9871-16.7154L75.3031-42.6854L85.9131-24.5864C87.2661-22.2784 89.7411-20.8604 92.4161-20.8604L125.008-20.8604C114.86-3.90442 97.1531 12.3256 73.9181 27.0216Z"/>
   <path class="monochrome-1 multicolor-1:labelColor hierarchical-1:primary SFSymbolsPreviewWireframe" d="M130.595-32.1674L94.5761-32.1674L81.8161-53.9344C78.9081-58.8944 71.7401-58.9044 68.8191-53.9514L53.1911-27.4524L45.6311-38.0374C42.6401-42.2244 36.4261-42.2514 33.4001-38.0894L29.0931-32.1674L6.84813-32.1674C4.16613-39.0484 2.76113-46.0154 2.76113-53.0184C2.76113-76.6544 19.0211-93.4164 39.8901-93.4164C53.0481-93.4164 62.6871-86.1244 68.7211-75.3124C74.8401-86.2084 84.3941-93.4164 97.5531-93.4164C118.422-93.4164 134.682-76.6544 134.682-53.0184C134.682-46.0154 133.276-39.0484 130.595-32.1674Z"/>
  </g>
  <g id="Regular-L" transform="matrix(1 0 0 1 1381.33 1556)">
   <path class="monochrome-0 multicolor-0:tintColor hierarchical-0:primary SFSymbolsPreviewWireframe" d="M73.9181 27.0216C72.4091 28.0276 70.2301 29.0336 68.7211 29.0336C67.2971 29.0336 65.0341 28.0276 63.5251 27.0216C40.2901 12.3256 22.5821-3.90442 12.4341-20.8604L31.0121-20.8604C33.4241-20.8604 35.6901-22.0144 37.1091-23.9644L39.4691-27.2094L47.3591-16.1634C50.5291-11.7254 57.2171-12.0184 59.9871-16.7154L75.3031-42.6854L85.9131-24.5864C87.2661-22.2784 89.7411-20.8604 92.4161-20.8604L125.008-20.8604C114.86-3.90442 97.1531 12.3256 73.9181 27.0216Z"/>
   <path class="monochrome-1 multicolor-1:labelColor hierarchical-1:primary SFSymbolsPreviewWireframe" d="M130.595-32.1674L94.5761-32.1674L81.8161-53.9344C78.9081-58.8944 71.7401-58.9044 68.8191-53.9514L53.1911-27.4524L45.6311-38.0374C42.6401-42.2244 36.4261-42.2514 33.4001-38.0894L29.0931-32.1674L6.84813-32.1674C4.16613-39.0484 2.76113-46.0154 2.76113-53.0184C2.76113-76.6544 19.0211-93.4164 39.8901-93.4164C53.0481-93.4164 62.6871-86.1244 68.7211-75.3124C74.8401-86.2084 84.3941-93.4164 97.5531-93.4164C118.422-93.4164 134.682-76.6544 134.682-53.0184C134.682-46.0154 133.276-39.0484 130.595-32.1674Z"/>
  </g>
  <g id="Light-L" transform="matrix(1 0 0 1 1084.62 1556)">
   <path class="monochrome-0 multicolor-0:tintColor hierarchical-0:primary SFSymbolsPreviewWireframe" d="M73.9181 27.0216C72.4091 28.0276 70.2301 29.0336 68.7211 29.0336C67.2971 29.0336 65.0341 28.0276 63.5251 27.0216C40.2901 12.3256 22.5821-3.90442 12.4341-20.8604L31.0121-20.8604C33.4241-20.8604 35.6901-22.0144 37.1091-23.9644L39.4691-27.2094L47.3591-16.1634C50.5291-11.7254 57.2171-12.0184 59.9871-16.7154L75.3031-42.6854L85.9131-24.5864C87.2661-22.2784 89.7411-20.8604 92.4161-20.8604L125.008-20.8604C114.86-3.90442 97.1531 12.3256 73.9181 27.0216Z"/>
   <path class="monochrome-1 multicolor-1:labelColor hierarchical-1:primary SFSymbolsPreviewWireframe" d="M130.595-32.1674L94.5761-32.1674L81.8161-53.9344C78.9081-58.8944 71.7401-58.9044 68.8191-53.9514L53.1911-27.4524L45.6311-38.0374C42.6401-42.2244 36.4261-42.2514 33.4001-38.0894L29.0931-32.1674L6.84813-32.1674C4.16613-39.0484 2.76113-46.0154 2.76113-53.0184C2.76113-76.6544 19.0211-93.4164 39.8901-93.4164C53.0481-93.4164 62.6871-86.1244 68.7211-75.3124C74.8401-86.2084 84.3941-93.4164 97.5531-93.4164C118.422-93.4164 134.682-76.6544 134.682-53.0184C134.682-46.0154 133.276-39.0484 130.595-32.1674Z"/>
  </g>
  <g id="Thin-L" transform="matrix(1 0 0 1 787.905 1556)">
   <path class="monochrome-0 multicolor-0:tintColor hierarchical-0:primary SFSymbolsPreviewWireframe" d="M73.9181 27.0216C72.4091 28.0276 70.2301 29.0336 68.7211 29.0336C67.2971 29.0336 65.0341 28.0276 63.5251 27.0216C40.2901 12.3256 22.5821-3.90442 12.4341-20.8604L31.0121-20.8604C33.4241-20.8604 35.6901-22.0144 37.1091-23.9644L39.4691-27.2094L47.3591-16.1634C50.5291-11.7254 57.2171-12.0184 59.9871-16.7154L75.3031-42.6854L85.9131-24.5864C87.2661-22.2784 89.7411-20.8604 92.4161-20.8604L125.008-20.8604C114.86-3.90442 97.1531 12.3256 73.9181 27.0216Z"/>
   <path class="monochrome-1 multicolor-1:labelColor hierarchical-1:primary SFSymbolsPreviewWireframe" d="M130.595-32.1674L94.5761-32.1674L81.8161-53.9344C78.9081-58.8944 71.7401-58.9044 68.8191-53.9514L53.1911-27.4524L45.6311-38.0374C42.6401-42.2244 36.4261-42.2514 33.4001-38.0894L29.0931-32.1674L6.84813-32.1674C4.16613-39.0484 2.76113-46.0154 2.76113-53.0184C2.76113-76.6544 19.0211-93.4164 39.8901-93.4164C53.0481-93.4164 62.6871-86.1244 68.7211-75.3124C74.8401-86.2084 84.3941-93.4164 97.5531-93.4164C118.422-93.4164 134.682-76.6544 134.682-53.0184C134.682-46.0154 133.276-39.0484 130.595-32.1674Z"/>
  </g>
  <g id="Ultralight-L" transform="matrix(1 0 0 1 491.194 1556)">
   <path class="monochrome-0 multicolor-0:tintColor hierarchical-0:primary SFSymbolsPreviewWireframe" d="M73.9181 27.0216C72.4091 28.0276 70.2301 29.0336 68.7211 29.0336C67.2971 29.0336 65.0341 28.0276 63.5251 27.0216C40.2901 12.3256 22.5821-3.90442 12.4341-20.8604L31.0121-20.8604C33.4241-20.8604 35.6901-22.0144 37.1091-23.9644L39.4691-27.2094L47.3591-16.1634C50.5291-11.7254 57.2171-12.0184 59.9871-16.7154L75.3031-42.6854L85.9131-24.5864C87.2661-22.2784 89.7411-20.8604 92.4161-20.8604L125.008-20.8604C114.86-3.90442 97.1531 12.3256 73.9181 27.0216Z"/>
   <path class="monochrome-1 multicolor-1:labelColor hierarchical-1:primary SFSymbolsPreviewWireframe" d="M130.595-32.1674L94.5761-32.1674L81.8161-53.9344C78.9081-58.8944 71.7401-58.9044 68.8191-53.9514L53.1911-27.4524L45.6311-38.0374C42.6401-42.2244 36.4261-42.2514 33.4001-38.0894L29.0931-32.1674L6.84813-32.1674C4.16613-39.0484 2.76113-46.0154 2.76113-53.0184C2.76113-76.6544 19.0211-93.4164 39.8901-93.4164C53.0481-93.4164 62.6871-86.1244 68.7211-75.3124C74.8401-86.2084 84.3941-93.4164 97.5531-93.4164C118.422-93.4164 134.682-76.6544 134.682-53.0184C134.682-46.0154 133.276-39.0484 130.595-32.1674Z"/>
  </g>
  <g id="Black-M" transform="matrix(1 0 0 1 2879.71 1126)">
   <path class="monochrome-0 multicolor-0:tintColor hierarchical-0:primary SFSymbolsPreviewWireframe" d="M57.9211 13.0272C56.7521 13.8072 55.0631 14.5862 53.8931 14.5862C52.7891 14.5862 51.0341 13.8072 49.8651 13.0272C31.8531 1.63425 18.1261-10.9468 10.2601-24.0908L24.6611-24.0908C26.5311-24.0908 28.2881-24.9848 29.3871-26.4968L31.2171-29.0128L37.3331-20.4498C39.7911-17.0098 44.9751-17.2358 47.1221-20.8778L58.9951-41.0098L67.2201-26.9788C68.2691-25.1898 70.1871-24.0908 72.2611-24.0908L97.5261-24.0908C89.6601-10.9468 75.9331 1.63425 57.9211 13.0272Z"/>
   <path class="monochrome-1 multicolor-1:labelColor hierarchical-1:primary SFSymbolsPreviewWireframe" d="M101.857-32.8558L73.9351-32.8558L64.0441-49.7298C61.7901-53.5748 56.2331-53.5818 53.9691-49.7428L41.8541-29.2008L35.9931-37.4068C33.6751-40.6518 28.8581-40.6728 26.5121-37.4468L23.1731-32.8558L5.92913-32.8558C3.85013-38.1898 2.76113-43.5908 2.76113-49.0198C2.76113-67.3418 15.3651-80.3358 31.5431-80.3358C41.7431-80.3358 49.2151-74.6838 53.8931-66.3018C58.6361-74.7488 66.0431-80.3358 76.2431-80.3358C92.4211-80.3358 105.025-67.3418 105.025-49.0198C105.025-43.5908 103.936-38.1898 101.857-32.8558Z"/>
  </g>
  <g id="Heavy-M" transform="matrix(1 0 0 1 2583 1126)">
   <path class="monochrome-0 multicolor-0:tintColor hierarchical-0:primary SFSymbolsPreviewWireframe" d="M57.9211 13.0272C56.7521 13.8072 55.0631 14.5862 53.8931 14.5862C52.7891 14.5862 51.0341 13.8072 49.8651 13.0272C31.8531 1.63425 18.1261-10.9468 10.2601-24.0908L24.6611-24.0908C26.5311-24.0908 28.2881-24.9848 29.3871-26.4968L31.2171-29.0128L37.3331-20.4498C39.7911-17.0098 44.9751-17.2358 47.1221-20.8778L58.9951-41.0098L67.2201-26.9788C68.2691-25.1898 70.1871-24.0908 72.2611-24.0908L97.5261-24.0908C89.6601-10.9468 75.9331 1.63425 57.9211 13.0272Z"/>
   <path class="monochrome-1 multicolor-1:labelColor hierarchical-1:primary SFSymbolsPreviewWireframe" d="M101.857-32.8558L73.9351-32.8558L64.0441-49.7298C61.7901-53.5748 56.2331-53.5818 53.9691-49.7428L41.8541-29.2008L35.9931-37.4068C33.6751-40.6518 28.8581-40.6728 26.5121-37.4468L23.1731-32.8558L5.92913-32.8558C3.85013-38.1898 2.76113-43.5908 2.76113-49.0198C2.76113-67.3418 15.3651-80.3358 31.5431-80.3358C41.7431-80.3358 49.2151-74.6838 53.8931-66.3018C58.6361-74.7488 66.0431-80.3358 76.2431-80.3358C92.4211-80.3358 105.025-67.3418 105.025-49.0198C105.025-43.5908 103.936-38.1898 101.857-32.8558Z"/>
  </g>
  <g id="Bold-M" transform="matrix(1 0 0 1 2286.29 1126)">
   <path class="monochrome-0 multicolor-0:tintColor hierarchical-0:primary SFSymbolsPreviewWireframe" d="M57.9211 13.0272C56.7521 13.8072 55.0631 14.5862 53.8931 14.5862C52.7891 14.5862 51.0341 13.8072 49.8651 13.0272C31.8531 1.63425 18.1261-10.9468 10.2601-24.0908L24.6611-24.0908C26.5311-24.0908 28.2881-24.9848 29.3871-26.4968L31.2171-29.0128L37.3331-20.4498C39.7911-17.0098 44.9751-17.2358 47.1221-20.8778L58.9951-41.0098L67.2201-26.9788C68.2691-25.1898 70.1871-24.0908 72.2611-24.0908L97.5261-24.0908C89.6601-10.9468 75.9331 1.63425 57.9211 13.0272Z"/>
   <path class="monochrome-1 multicolor-1:labelColor hierarchical-1:primary SFSymbolsPreviewWireframe" d="M101.857-32.8558L73.9351-32.8558L64.0441-49.7298C61.7901-53.5748 56.2331-53.5818 53.9691-49.7428L41.8541-29.2008L35.9931-37.4068C33.6751-40.6518 28.8581-40.6728 26.5121-37.4468L23.1731-32.8558L5.92913-32.8558C3.85013-38.1898 2.76113-43.5908 2.76113-49.0198C2.76113-67.3418 15.3651-80.3358 31.5431-80.3358C41.7431-80.3358 49.2151-74.6838 53.8931-66.3018C58.6361-74.7488 66.0431-80.3358 76.2431-80.3358C92.4211-80.3358 105.025-67.3418 105.025-49.0198C105.025-43.5908 103.936-38.1898 101.857-32.8558Z"/>
  </g>
  <g id="Semibold-M" transform="matrix(1 0 0 1 1989.58 1126)">
   <path class="monochrome-0 multicolor-0:tintColor hierarchical-0:primary SFSymbolsPreviewWireframe" d="M57.9211 13.0272C56.7521 13.8072 55.0631 14.5862 53.8931 14.5862C52.7891 14.5862 51.0341 13.8072 49.8651 13.0272C31.8531 1.63425 18.1261-10.9468 10.2601-24.0908L24.6611-24.0908C26.5311-24.0908 28.2881-24.9848 29.3871-26.4968L31.2171-29.0128L37.3331-20.4498C39.7911-17.0098 44.9751-17.2358 47.1221-20.8778L58.9951-41.0098L67.2201-26.9788C68.2691-25.1898 70.1871-24.0908 72.2611-24.0908L97.5261-24.0908C89.6601-10.9468 75.9331 1.63425 57.9211 13.0272Z"/>
   <path class="monochrome-1 multicolor-1:labelColor hierarchical-1:primary SFSymbolsPreviewWireframe" d="M101.857-32.8558L73.9351-32.8558L64.0441-49.7298C61.7901-53.5748 56.2331-53.5818 53.9691-49.7428L41.8541-29.2008L35.9931-37.4068C33.6751-40.6518 28.8581-40.6728 26.5121-37.4468L23.1731-32.8558L5.92913-32.8558C3.85013-38.1898 2.76113-43.5908 2.76113-49.0198C2.76113-67.3418 15.3651-80.3358 31.5431-80.3358C41.7431-80.3358 49.2151-74.6838 53.8931-66.3018C58.6361-74.7488 66.0431-80.3358 76.2431-80.3358C92.4211-80.3358 105.025-67.3418 105.025-49.0198C105.025-43.5908 103.936-38.1898 101.857-32.8558Z"/>
  </g>
  <g id="Medium-M" transform="matrix(1 0 0 1 1692.87 1126)">
   <path class="monochrome-0 multicolor-0:tintColor hierarchical-0:primary SFSymbolsPreviewWireframe" d="M57.9211 13.0272C56.7521 13.8072 55.0631 14.5862 53.8931 14.5862C52.7891 14.5862 51.0341 13.8072 49.8651 13.0272C31.8531 1.63425 18.1261-10.9468 10.2601-24.0908L24.6611-24.0908C26.5311-24.0908 28.2881-24.9848 29.3871-26.4968L31.2171-29.0128L37.3331-20.4498C39.7911-17.0098 44.9751-17.2358 47.1221-20.8778L58.9951-41.0098L67.2201-26.9788C68.2691-25.1898 70.1871-24.0908 72.2611-24.0908L97.5261-24.0908C89.6601-10.9468 75.9331 1.63425 57.9211 13.0272Z"/>
   <path class="monochrome-1 multicolor-1:labelColor hierarchical-1:primary SFSymbolsPreviewWireframe" d="M101.857-32.8558L73.9351-32.8558L64.0441-49.7298C61.7901-53.5748 56.2331-53.5818 53.9691-49.7428L41.8541-29.2008L35.9931-37.4068C33.6751-40.6518 28.8581-40.6728 26.5121-37.4468L23.1731-32.8558L5.92913-32.8558C3.85013-38.1898 2.76113-43.5908 2.76113-49.0198C2.76113-67.3418 15.3651-80.3358 31.5431-80.3358C41.7431-80.3358 49.2151-74.6838 53.8931-66.3018C58.6361-74.7488 66.0431-80.3358 76.2431-80.3358C92.4211-80.3358 105.025-67.3418 105.025-49.0198C105.025-43.5908 103.936-38.1898 101.857-32.8558Z"/>
  </g>
  <g id="Regular-M" transform="matrix(1 0 0 1 1396.16 1126)">
   <path class="monochrome-0 multicolor-0:tintColor hierarchical-0:primary SFSymbolsPreviewWireframe" d="M57.9211 13.0272C56.7521 13.8072 55.0631 14.5862 53.8931 14.5862C52.7891 14.5862 51.0341 13.8072 49.8651 13.0272C31.8531 1.63425 18.1261-10.9468 10.2601-24.0908L24.6611-24.0908C26.5311-24.0908 28.2881-24.9848 29.3871-26.4968L31.2171-29.0128L37.3331-20.4498C39.7911-17.0098 44.9751-17.2358 47.1221-20.8778L58.9951-41.0098L67.2201-26.9788C68.2691-25.1898 70.1871-24.0908 72.2611-24.0908L97.5261-24.0908C89.6601-10.9468 75.9331 1.63425 57.9211 13.0272Z"/>
   <path class="monochrome-1 multicolor-1:labelColor hierarchical-1:primary SFSymbolsPreviewWireframe" d="M101.857-32.8558L73.9351-32.8558L64.0441-49.7298C61.7901-53.5748 56.2331-53.5818 53.9691-49.7428L41.8541-29.2008L35.9931-37.4068C33.6751-40.6518 28.8581-40.6728 26.5121-37.4468L23.1731-32.8558L5.92913-32.8558C3.85013-38.1898 2.76113-43.5908 2.76113-49.0198C2.76113-67.3418 15.3651-80.3358 31.5431-80.3358C41.7431-80.3358 49.2151-74.6838 53.8931-66.3018C58.6361-74.7488 66.0431-80.3358 76.2431-80.3358C92.4211-80.3358 105.025-67.3418 105.025-49.0198C105.025-43.5908 103.936-38.1898 101.857-32.8558Z"/>
  </g>
  <g id="Light-M" transform="matrix(1 0 0 1 1099.44 1126)">
   <path class="monochrome-0 multicolor-0:tintColor hierarchical-0:primary SFSymbolsPreviewWireframe" d="M57.9211 13.0272C56.7521 13.8072 55.0631 14.5862 53.8931 14.5862C52.7891 14.5862 51.0341 13.8072 49.8651 13.0272C31.8531 1.63425 18.1261-10.9468 10.2601-24.0908L24.6611-24.0908C26.5311-24.0908 28.2881-24.9848 29.3871-26.4968L31.2171-29.0128L37.3331-20.4498C39.7911-17.0098 44.9751-17.2358 47.1221-20.8778L58.9951-41.0098L67.2201-26.9788C68.2691-25.1898 70.1871-24.0908 72.2611-24.0908L97.5261-24.0908C89.6601-10.9468 75.9331 1.63425 57.9211 13.0272Z"/>
   <path class="monochrome-1 multicolor-1:labelColor hierarchical-1:primary SFSymbolsPreviewWireframe" d="M101.857-32.8558L73.9351-32.8558L64.0441-49.7298C61.7901-53.5748 56.2331-53.5818 53.9691-49.7428L41.8541-29.2008L35.9931-37.4068C33.6751-40.6518 28.8581-40.6728 26.5121-37.4468L23.1731-32.8558L5.92913-32.8558C3.85013-38.1898 2.76113-43.5908 2.76113-49.0198C2.76113-67.3418 15.3651-80.3358 31.5431-80.3358C41.7431-80.3358 49.2151-74.6838 53.8931-66.3018C58.6361-74.7488 66.0431-80.3358 76.2431-80.3358C92.4211-80.3358 105.025-67.3418 105.025-49.0198C105.025-43.5908 103.936-38.1898 101.857-32.8558Z"/>
  </g>
  <g id="Thin-M" transform="matrix(1 0 0 1 802.734 1126)">
   <path class="monochrome-0 multicolor-0:tintColor hierarchical-0:primary SFSymbolsPreviewWireframe" d="M57.9211 13.0272C56.7521 13.8072 55.0631 14.5862 53.8931 14.5862C52.7891 14.5862 51.0341 13.8072 49.8651 13.0272C31.8531 1.63425 18.1261-10.9468 10.2601-24.0908L24.6611-24.0908C26.5311-24.0908 28.2881-24.9848 29.3871-26.4968L31.2171-29.0128L37.3331-20.4498C39.7911-17.0098 44.9751-17.2358 47.1221-20.8778L58.9951-41.0098L67.2201-26.9788C68.2691-25.1898 70.1871-24.0908 72.2611-24.0908L97.5261-24.0908C89.6601-10.9468 75.9331 1.63425 57.9211 13.0272Z"/>
   <path class="monochrome-1 multicolor-1:labelColor hierarchical-1:primary SFSymbolsPreviewWireframe" d="M101.857-32.8558L73.9351-32.8558L64.0441-49.7298C61.7901-53.5748 56.2331-53.5818 53.9691-49.7428L41.8541-29.2008L35.9931-37.4068C33.6751-40.6518 28.8581-40.6728 26.5121-37.4468L23.1731-32.8558L5.92913-32.8558C3.85013-38.1898 2.76113-43.5908 2.76113-49.0198C2.76113-67.3418 15.3651-80.3358 31.5431-80.3358C41.7431-80.3358 49.2151-74.6838 53.8931-66.3018C58.6361-74.7488 66.0431-80.3358 76.2431-80.3358C92.4211-80.3358 105.025-67.3418 105.025-49.0198C105.025-43.5908 103.936-38.1898 101.857-32.8558Z"/>
  </g>
  <g id="Ultralight-M" transform="matrix(1 0 0 1 506.022 1126)">
   <path class="monochrome-0 multicolor-0:tintColor hierarchical-0:primary SFSymbolsPreviewWireframe" d="M57.9211 13.0272C56.7521 13.8072 55.0631 14.5862 53.8931 14.5862C52.7891 14.5862 51.0341 13.8072 49.8651 13.0272C31.8531 1.63425 18.1261-10.9468 10.2601-24.0908L24.6611-24.0908C26.5311-24.0908 28.2881-24.9848 29.3871-26.4968L31.2171-29.0128L37.3331-20.4498C39.7911-17.0098 44.9751-17.2358 47.1221-20.8778L58.9951-41.0098L67.2201-26.9788C68.2691-25.1898 70.1871-24.0908 72.2611-24.0908L97.5261-24.0908C89.6601-10.9468 75.9331 1.63425 57.9211 13.0272Z"/>
   <path class="monochrome-1 multicolor-1:labelColor hierarchical-1:primary SFSymbolsPreviewWireframe" d="M101.857-32.8558L73.9351-32.8558L64.0441-49.7298C61.7901-53.5748 56.2331-53.5818 53.9691-49.7428L41.8541-29.2008L35.9931-37.4068C33.6751-40.6518 28.8581-40.6728 26.5121-37.4468L23.1731-32.8558L5.92913-32.8558C3.85013-38.1898 2.76113-43.5908 2.76113-49.0198C2.76113-67.3418 15.3651-80.3358 31.5431-80.3358C41.7431-80.3358 49.2151-74.6838 53.8931-66.3018C58.6361-74.7488 66.0431-80.3358 76.2431-80.3358C92.4211-80.3358 105.025-67.3418 105.025-49.0198C105.025-43.5908 103.936-38.1898 101.857-32.8558Z"/>
  </g>
  <g id="Black-S" transform="matrix(1 0 0 1 2890.81 696)">
   <path class="monochrome-0 multicolor-0:tintColor hierarchical-0:primary SFSymbolsPreviewWireframe" d="M45.9511 2.5552C45.0361 3.1662 43.7131 3.7762 42.7971 3.7762C41.9331 3.7762 40.5591 3.1662 39.6431 2.5552C25.5401-6.3648 14.7921-16.2168 8.63213-26.5078L19.9091-26.5078C21.3731-26.5078 22.7481-27.2078 23.6091-28.3918L25.0421-30.3618L29.8311-23.6568C31.7551-20.9628 35.8141-21.1408 37.4961-23.9918L46.7921-39.7558L53.2321-28.7698C54.0531-27.3688 55.5561-26.5078 57.1801-26.5078L76.9621-26.5078C70.8031-16.2168 60.0551-6.3648 45.9511 2.5552Z"/>
   <path class="monochrome-1 multicolor-1:labelColor hierarchical-1:primary SFSymbolsPreviewWireframe" d="M80.3531-33.3708L58.4901-33.3708L50.7451-46.5828C48.9801-49.5938 44.6301-49.5998 42.8571-46.5938L33.3711-30.5088L28.7821-36.9338C26.9671-39.4758 23.1951-39.4918 21.3581-36.9658L18.7441-33.3708L5.24213-33.3708C3.61413-37.5478 2.76113-41.7768 2.76113-46.0278C2.76113-60.3738 12.6301-70.5478 25.2971-70.5478C33.2841-70.5478 39.1351-66.1218 42.7971-59.5598C46.5111-66.1728 52.3101-70.5478 60.2971-70.5478C72.9651-70.5478 82.8341-60.3738 82.8341-46.0278C82.8341-41.7768 81.9811-37.5478 80.3531-33.3708Z"/>
  </g>
  <g id="Heavy-S" transform="matrix(1 0 0 1 2594.1 696)">
   <path class="monochrome-0 multicolor-0:tintColor hierarchical-0:primary SFSymbolsPreviewWireframe" d="M45.9511 2.5552C45.0361 3.1662 43.7131 3.7762 42.7971 3.7762C41.9331 3.7762 40.5591 3.1662 39.6431 2.5552C25.5401-6.3648 14.7921-16.2168 8.63213-26.5078L19.9091-26.5078C21.3731-26.5078 22.7481-27.2078 23.6091-28.3918L25.0421-30.3618L29.8311-23.6568C31.7551-20.9628 35.8141-21.1408 37.4961-23.9918L46.7921-39.7558L53.2321-28.7698C54.0531-27.3688 55.5561-26.5078 57.1801-26.5078L76.9621-26.5078C70.8031-16.2168 60.0551-6.3648 45.9511 2.5552Z"/>
   <path class="monochrome-1 multicolor-1:labelColor hierarchical-1:primary SFSymbolsPreviewWireframe" d="M80.3531-33.3708L58.4901-33.3708L50.7451-46.5828C48.9801-49.5938 44.6301-49.5998 42.8571-46.5938L33.3711-30.5088L28.7821-36.9338C26.9671-39.4758 23.1951-39.4918 21.3581-36.9658L18.7441-33.3708L5.24213-33.3708C3.61413-37.5478 2.76113-41.7768 2.76113-46.0278C2.76113-60.3738 12.6301-70.5478 25.2971-70.5478C33.2841-70.5478 39.1351-66.1218 42.7971-59.5598C46.5111-66.1728 52.3101-70.5478 60.2971-70.5478C72.9651-70.5478 82.8341-60.3738 82.8341-46.0278C82.8341-41.7768 81.9811-37.5478 80.3531-33.3708Z"/>
  </g>
  <g id="Bold-S" transform="matrix(1 0 0 1 2297.38 696)">
   <path class="monochrome-0 multicolor-0:tintColor hierarchical-0:primary SFSymbolsPreviewWireframe" d="M45.9511 2.5552C45.0361 3.1662 43.7131 3.7762 42.7971 3.7762C41.9331 3.7762 40.5591 3.1662 39.6431 2.5552C25.5401-6.3648 14.7921-16.2168 8.63213-26.5078L19.9091-26.5078C21.3731-26.5078 22.7481-27.2078 23.6091-28.3918L25.0421-30.3618L29.8311-23.6568C31.7551-20.9628 35.8141-21.1408 37.4961-23.9918L46.7921-39.7558L53.2321-28.7698C54.0531-27.3688 55.5561-26.5078 57.1801-26.5078L76.9621-26.5078C70.8031-16.2168 60.0551-6.3648 45.9511 2.5552Z"/>
   <path class="monochrome-1 multicolor-1:labelColor hierarchical-1:primary SFSymbolsPreviewWireframe" d="M80.3531-33.3708L58.4901-33.3708L50.7451-46.5828C48.9801-49.5938 44.6301-49.5998 42.8571-46.5938L33.3711-30.5088L28.7821-36.9338C26.9671-39.4758 23.1951-39.4918 21.3581-36.9658L18.7441-33.3708L5.24213-33.3708C3.61413-37.5478 2.76113-41.7768 2.76113-46.0278C2.76113-60.3738 12.6301-70.5478 25.2971-70.5478C33.2841-70.5478 39.1351-66.1218 42.7971-59.5598C46.5111-66.1728 52.3101-70.5478 60.2971-70.5478C72.9651-70.5478 82.8341-60.3738 82.8341-46.0278C82.8341-41.7768 81.9811-37.5478 80.3531-33.3708Z"/>
  </g>
  <g id="Semibold-S" transform="matrix(1 0 0 1 2000.67 696)">
   <path class="monochrome-0 multicolor-0:tintColor hierarchical-0:primary SFSymbolsPreviewWireframe" d="M45.9511 2.5552C45.0361 3.1662 43.7131 3.7762 42.7971 3.7762C41.9331 3.7762 40.5591 3.1662 39.6431 2.5552C25.5401-6.3648 14.7921-16.2168 8.63213-26.5078L19.9091-26.5078C21.3731-26.5078 22.7481-27.2078 23.6091-28.3918L25.0421-30.3618L29.8311-23.6568C31.7551-20.9628 35.8141-21.1408 37.4961-23.9918L46.7921-39.7558L53.2321-28.7698C54.0531-27.3688 55.5561-26.5078 57.1801-26.5078L76.9621-26.5078C70.8031-16.2168 60.0551-6.3648 45.9511 2.5552Z"/>
   <path class="monochrome-1 multicolor-1:labelColor hierarchical-1:primary SFSymbolsPreviewWireframe" d="M80.3531-33.3708L58.4901-33.3708L50.7451-46.5828C48.9801-49.5938 44.6301-49.5998 42.8571-46.5938L33.3711-30.5088L28.7821-36.9338C26.9671-39.4758 23.1951-39.4918 21.3581-36.9658L18.7441-33.3708L5.24213-33.3708C3.61413-37.5478 2.76113-41.7768 2.76113-46.0278C2.76113-60.3738 12.6301-70.5478 25.2971-70.5478C33.2841-70.5478 39.1351-66.1218 42.7971-59.5598C46.5111-66.1728 52.3101-70.5478 60.2971-70.5478C72.9651-70.5478 82.8341-60.3738 82.8341-46.0278C82.8341-41.7768 81.9811-37.5478 80.3531-33.3708Z"/>
  </g>
  <g id="Medium-S" transform="matrix(1 0 0 1 1703.96 696)">
   <path class="monochrome-0 multicolor-0:tintColor hierarchical-0:primary SFSymbolsPreviewWireframe" d="M45.9511 2.5552C45.0361 3.1662 43.7131 3.7762 42.7971 3.7762C41.9331 3.7762 40.5591 3.1662 39.6431 2.5552C25.5401-6.3648 14.7921-16.2168 8.63213-26.5078L19.9091-26.5078C21.3731-26.5078 22.7481-27.2078 23.6091-28.3918L25.0421-30.3618L29.8311-23.6568C31.7551-20.9628 35.8141-21.1408 37.4961-23.9918L46.7921-39.7558L53.2321-28.7698C54.0531-27.3688 55.5561-26.5078 57.1801-26.5078L76.9621-26.5078C70.8031-16.2168 60.0551-6.3648 45.9511 2.5552Z"/>
   <path class="monochrome-1 multicolor-1:labelColor hierarchical-1:primary SFSymbolsPreviewWireframe" d="M80.3531-33.3708L58.4901-33.3708L50.7451-46.5828C48.9801-49.5938 44.6301-49.5998 42.8571-46.5938L33.3711-30.5088L28.7821-36.9338C26.9671-39.4758 23.1951-39.4918 21.3581-36.9658L18.7441-33.3708L5.24213-33.3708C3.61413-37.5478 2.76113-41.7768 2.76113-46.0278C2.76113-60.3738 12.6301-70.5478 25.2971-70.5478C33.2841-70.5478 39.1351-66.1218 42.7971-59.5598C46.5111-66.1728 52.3101-70.5478 60.2971-70.5478C72.9651-70.5478 82.8341-60.3738 82.8341-46.0278C82.8341-41.7768 81.9811-37.5478 80.3531-33.3708Z"/>
  </g>
  <g id="Regular-S" transform="matrix(1 0 0 1 1407.25 696)">
   <path class="monochrome-0 multicolor-0:tintColor hierarchical-0:primary SFSymbolsPreviewWireframe" d="M45.9511 2.5552C45.0361 3.1662 43.7131 3.7762 42.7971 3.7762C41.9331 3.7762 40.5591 3.1662 39.6431 2.5552C25.5401-6.3648 14.7921-16.2168 8.63213-26.5078L19.9091-26.5078C21.3731-26.5078 22.7481-27.2078 23.6091-28.3918L25.0421-30.3618L29.8311-23.6568C31.7551-20.9628 35.8141-21.1408 37.4961-23.9918L46.7921-39.7558L53.2321-28.7698C54.0531-27.3688 55.5561-26.5078 57.1801-26.5078L76.9621-26.5078C70.8031-16.2168 60.0551-6.3648 45.9511 2.5552Z"/>
   <path class="monochrome-1 multicolor-1:labelColor hierarchical-1:primary SFSymbolsPreviewWireframe" d="M80.3531-33.3708L58.4901-33.3708L50.7451-46.5828C48.9801-49.5938 44.6301-49.5998 42.8571-46.5938L33.3711-30.5088L28.7821-36.9338C26.9671-39.4758 23.1951-39.4918 21.3581-36.9658L18.7441-33.3708L5.24213-33.3708C3.61413-37.5478 2.76113-41.7768 2.76113-46.0278C2.76113-60.3738 12.6301-70.5478 25.2971-70.5478C33.2841-70.5478 39.1351-66.1218 42.7971-59.5598C46.5111-66.1728 52.3101-70.5478 60.2971-70.5478C72.9651-70.5478 82.8341-60.3738 82.8341-46.0278C82.8341-41.7768 81.9811-37.5478 80.3531-33.3708Z"/>
  </g>
  <g id="Light-S" transform="matrix(1 0 0 1 1110.54 696)">
   <path class="monochrome-0 multicolor-0:tintColor hierarchical-0:primary SFSymbolsPreviewWireframe" d="M45.9511 2.5552C45.0361 3.1662 43.7131 3.7762 42.7971 3.7762C41.9331 3.7762 40.5591 3.1662 39.6431 2.5552C25.5401-6.3648 14.7921-16.2168 8.63213-26.5078L19.9091-26.5078C21.3731-26.5078 22.7481-27.2078 23.6091-28.3918L25.0421-30.3618L29.8311-23.6568C31.7551-20.9628 35.8141-21.1408 37.4961-23.9918L46.7921-39.7558L53.2321-28.7698C54.0531-27.3688 55.5561-26.5078 57.1801-26.5078L76.9621-26.5078C70.8031-16.2168 60.0551-6.3648 45.9511 2.5552Z"/>
   <path class="monochrome-1 multicolor-1:labelColor hierarchical-1:primary SFSymbolsPreviewWireframe" d="M80.3531-33.3708L58.4901-33.3708L50.7451-46.5828C48.9801-49.5938 44.6301-49.5998 42.8571-46.5938L33.3711-30.5088L28.7821-36.9338C26.9671-39.4758 23.1951-39.4918 21.3581-36.9658L18.7441-33.3708L5.24213-33.3708C3.61413-37.5478 2.76113-41.7768 2.76113-46.0278C2.76113-60.3738 12.6301-70.5478 25.2971-70.5478C33.2841-70.5478 39.1351-66.1218 42.7971-59.5598C46.5111-66.1728 52.3101-70.5478 60.2971-70.5478C72.9651-70.5478 82.8341-60.3738 82.8341-46.0278C82.8341-41.7768 81.9811-37.5478 80.3531-33.3708Z"/>
  </g>
  <g id="Thin-S" transform="matrix(1 0 0 1 813.829 696)">
   <path class="monochrome-0 multicolor-0:tintColor hierarchical-0:primary SFSymbolsPreviewWireframe" d="M45.9511 2.5552C45.0361 3.1662 43.7131 3.7762 42.7971 3.7762C41.9331 3.7762 40.5591 3.1662 39.6431 2.5552C25.5401-6.3648 14.7921-16.2168 8.63213-26.5078L19.9091-26.5078C21.3731-26.5078 22.7481-27.2078 23.6091-28.3918L25.0421-30.3618L29.8311-23.6568C31.7551-20.9628 35.8141-21.1408 37.4961-23.9918L46.7921-39.7558L53.2321-28.7698C54.0531-27.3688 55.5561-26.5078 57.1801-26.5078L76.9621-26.5078C70.8031-16.2168 60.0551-6.3648 45.9511 2.5552Z"/>
   <path class="monochrome-1 multicolor-1:labelColor hierarchical-1:primary SFSymbolsPreviewWireframe" d="M80.3531-33.3708L58.4901-33.3708L50.7451-46.5828C48.9801-49.5938 44.6301-49.5998 42.8571-46.5938L33.3711-30.5088L28.7821-36.9338C26.9671-39.4758 23.1951-39.4918 21.3581-36.9658L18.7441-33.3708L5.24213-33.3708C3.61413-37.5478 2.76113-41.7768 2.76113-46.0278C2.76113-60.3738 12.6301-70.5478 25.2971-70.5478C33.2841-70.5478 39.1351-66.1218 42.7971-59.5598C46.5111-66.1728 52.3101-70.5478 60.2971-70.5478C72.9651-70.5478 82.8341-60.3738 82.8341-46.0278C82.8341-41.7768 81.9811-37.5478 80.3531-33.3708Z"/>
  </g>
  <g id="Ultralight-S" transform="matrix(1 0 0 1 517.118 696)">
   <path class="monochrome-0 multicolor-0:tintColor hierarchical-0:primary SFSymbolsPreviewWireframe" d="M45.9511 2.5552C45.0361 3.1662 43.7131 3.7762 42.7971 3.7762C41.9331 3.7762 40.5591 3.1662 39.6431 2.5552C25.5401-6.3648 14.7921-16.2168 8.63213-26.5078L19.9091-26.5078C21.3731-26.5078 22.7481-27.2078 23.6091-28.3918L25.0421-30.3618L29.8311-23.6568C31.7551-20.9628 35.8141-21.1408 37.4961-23.9918L46.7921-39.7558L53.2321-28.7698C54.0531-27.3688 55.5561-26.5078 57.1801-26.5078L76.9621-26.5078C70.8031-16.2168 60.0551-6.3648 45.9511 2.5552Z"/>
   <path class="monochrome-1 multicolor-1:labelColor hierarchical-1:primary SFSymbolsPreviewWireframe" d="M80.3531-33.3708L58.4901-33.3708L50.7451-46.5828C48.9801-49.5938 44.6301-49.5998 42.8571-46.5938L33.3711-30.5088L28.7821-36.9338C26.9671-39.4758 23.1951-39.4918 21.3581-36.9658L18.7441-33.3708L5.24213-33.3708C3.61413-37.5478 2.76113-41.7768 2.76113-46.0278C2.76113-60.3738 12.6301-70.5478 25.2971-70.5478C33.2841-70.5478 39.1351-66.1218 42.7971-59.5598C46.5111-66.1728 52.3101-70.5478 60.2971-70.5478C72.9651-70.5478 82.8341-60.3738 82.8341-46.0278C82.8341-41.7768 81.9811-37.5478 80.3531-33.3708Z"/>
  </g>
 </g>
</svg>
